# xmcd
# 
# Track frame offsets:
#     150
#     13315
#     29120
#     40895
#     53312
#     65847
#     84227
#     97665
#     109172
#     119210
#     134485
#     151650
#     166682
#     180365
#     194320
#     205002
# 
# Disc length: 2871
# 
# Revision: 1
# Processed by: cddbd v1.5.2PL0 Copyright (c) Steve Scherf et al.
# Submitted via: BonkEnc v1.0.8
# 
DISCID=ce0b3510
DTITLE=Kenny Rogers - Masters Of Pop Music
DYEAR=1988
DGENRE=Country
TTITLE0=Ruby Don't Take Your Love To Town
TTITLE1=Tulsa Turnaround
TTITLE2=Elvira
TTITLE3=Ruben James
TTITLE4=Love Woman
TTITLE5=The King Of Oak Street
TTITLE6=Shine On Ruby Mountain
TTITLE7=Me And Bobby McGee
TTITLE8=Where Does Rosie Go
TTITLE9=For The Good Times
TTITLE10=Something's Burning
TTITLE11=Tell It All Brother
TTITLE12=I'm Gonna Sing You A Sad Song Susy
TTITLE13=Molly
TTITLE14=We All Got To Help Each Other
TTITLE15=Ticket To Nowhere
EXTD=YEAR: 1988
EXTT0=
EXTT1=
EXTT2=
EXTT3=
EXTT4=
EXTT5=
EXTT6=
EXTT7=
EXTT8=
EXTT9=
EXTT10=
EXTT11=
EXTT12=
EXTT13=
EXTT14=
EXTT15=
PLAYORDER=
